<svg width="40" height="36" viewBox="0 0 40 36" fill="none" xmlns="http://www.w3.org/2000/svg">
<path d="M20.0036 11.7891L13.947 1.10057C14.1481 0.895823 14.3795 0.761528 14.6109 0.671265C12.8248 1.25908 12.0053 3.26469 12.0053 3.26469L0.940912 22.7858C0.785228 23.3978 0.741978 23.9504 0.761439 24.437H12.8378L20.0036 11.7891Z" fill="#34A853"/>
<path d="M20.0034 11.7891L27.1692 24.437H39.2456C39.265 23.9504 39.2218 23.3978 39.0661 22.7858L28.0017 3.26469C28.0017 3.26469 27.18 1.25908 25.3961 0.671265C25.6253 0.761528 25.8589 0.895823 26.06 1.10057L20.0034 11.7891Z" fill="#FBBC05"/>
<path d="M20.0035 11.7895L26.06 1.101C25.8589 0.896253 25.6254 0.761958 25.3962 0.671695C25.1324 0.585834 24.8491 0.528594 24.5421 0.513184H24.2221H15.7848H15.4648C15.1599 0.526393 14.8745 0.583633 14.6107 0.671695C14.3815 0.761958 14.148 0.896253 13.9469 1.101L20.0035 11.7895Z" fill="#188038"/>
<path d="M12.8398 24.437L6.8524 35.0044C6.8524 35.0044 6.65346 34.9076 6.38318 34.7072C7.23296 35.3611 8.05895 35.4998 8.05895 35.4998H31.5738C32.8711 35.4998 33.1414 35.0044 33.1414 35.0044C33.1457 35.0022 33.1479 35 33.1522 34.9978L27.1692 24.437H12.8398Z" fill="#4285F4"/>
<path d="M12.8403 24.437H0.763916C0.82446 25.8724 1.4472 26.7112 1.4472 26.7112L1.90128 27.4994C1.93371 27.5456 1.95317 27.572 1.95317 27.572L2.94133 29.3068L5.15983 33.1683C5.2247 33.3247 5.30038 33.4678 5.38039 33.6042C5.41066 33.6505 5.43877 33.7011 5.4712 33.7451C5.47985 33.7584 5.4885 33.7716 5.49715 33.7848C5.77176 34.1722 6.0788 34.4717 6.38585 34.7072C6.65613 34.9098 6.85506 35.0044 6.85506 35.0044L12.8403 24.437Z" fill="#1967D2"/>
<path d="M27.1692 24.437H39.2455C39.185 25.8724 38.5623 26.7112 38.5623 26.7112L38.1082 27.4994C38.0757 27.5456 38.0563 27.572 38.0563 27.572L37.0681 29.3068L34.8496 33.1683C34.7847 33.3247 34.7091 33.4678 34.6291 33.6042C34.5988 33.6505 34.5707 33.7011 34.5382 33.7451C34.5296 33.7584 34.5209 33.7716 34.5123 33.7848C34.2377 34.1722 33.9306 34.4717 33.6236 34.7072C33.3533 34.9098 33.1544 35.0044 33.1544 35.0044L27.1692 24.437Z" fill="#EA4335"/>
</svg>
