<svg width="50" height="50" viewBox="0 0 50 50" fill="none" xmlns="http://www.w3.org/2000/svg">
<path d="M48.9133 23.6288L27.1131 2.54382L25 0.5L8.5897 16.372L1.08671 23.6288C0.304432 24.3864 0.304432 25.6136 1.08671 26.3712L16.0793 40.872L25 49.5L41.4103 33.628L41.6644 33.3823L48.9133 26.3712C49.6956 25.6136 49.6956 24.3864 48.9133 23.6288ZM25 32.2439L17.5104 25L25 17.7561L32.4896 25L25 32.2439Z" fill="#2684FF"/>
<path fill-rule="evenodd" clip-rule="evenodd" d="M25.0001 17.7561C20.0965 13.0127 20.0726 5.33002 24.9466 0.558228L8.5564 16.4043L17.4771 25.0324L25.0001 17.7561Z" fill="url(#paint0_linear_10_506)"/>
<path fill-rule="evenodd" clip-rule="evenodd" d="M32.5097 24.9806L25 32.2439C27.3668 34.5317 28.6966 37.6355 28.6966 40.872C28.6966 44.1084 27.3668 47.2122 25 49.5L41.4304 33.6086L32.5097 24.9806Z" fill="url(#paint1_linear_10_506)"/>
<defs>
<linearGradient id="paint0_linear_10_506" x1="23.6627" y1="10.4281" x2="11.169" y2="15.883" gradientUnits="userSpaceOnUse">
<stop offset="0.18" stop-color="#0052CC"/>
<stop offset="1" stop-color="#2684FF"/>
</linearGradient>
<linearGradient id="paint1_linear_10_506" x1="26.4311" y1="39.4878" x2="38.9022" y2="34.0716" gradientUnits="userSpaceOnUse">
<stop offset="0.18" stop-color="#0052CC"/>
<stop offset="1" stop-color="#2684FF"/>
</linearGradient>
</defs>
</svg>
