<svg width="46" height="46" viewBox="0 0 46 46" fill="none" xmlns="http://www.w3.org/2000/svg">
<path d="M14.6843 18.7627V18.4073C14.6843 17.5062 15.4059 16.7589 16.336 16.6968L23.1109 16.2445L32.4799 30.0412V17.9323L30.0684 17.6108V17.4419C30.0684 16.5303 30.8066 15.7781 31.7485 15.7298L37.9129 15.414V16.3011C37.9129 16.7176 37.6032 17.0738 37.1788 17.1456L35.6954 17.3965V37.0065L33.8336 37.6467C32.2783 38.1816 30.5468 37.609 29.6564 36.2655L20.5607 22.5401V35.6402L23.3604 36.176L23.3214 36.4357C23.1992 37.2491 22.4969 37.8643 21.6473 37.9021L14.6843 38.212C14.5922 37.3373 15.2478 36.5547 16.1522 36.4597L17.0681 36.3635V18.8967L14.6843 18.7627Z" fill="black"/>
<path fill-rule="evenodd" clip-rule="evenodd" d="M31.1812 0.191869L3.2662 2.09774C1.5941 2.2119 0.297974 3.55618 0.297974 5.17623V32.3273C0.297974 33.8495 0.821959 35.3284 1.78738 36.5311L7.80626 44.0292C8.77941 45.2415 10.3109 45.9091 11.8952 45.8115L42.8777 43.9044C44.4657 43.8066 45.7019 42.5334 45.7019 40.9956V10.1275C45.7019 9.17604 45.2214 8.28451 44.4148 7.73913L34.6069 1.10801C33.6074 0.432223 32.398 0.108793 31.1812 0.191869ZM4.65044 5.59974C4.26219 5.3123 4.44697 4.71346 4.9347 4.67847L31.369 2.78244C32.2112 2.72203 33.0481 2.95396 33.7292 3.43654L39.0331 7.19422C39.2344 7.33689 39.14 7.64486 38.8907 7.65841L10.8969 9.18089C10.0497 9.22696 9.21349 8.97808 8.5399 8.47937L4.65044 5.59974ZM9.58388 13.9537C9.58388 13.0443 10.3186 12.2931 11.2581 12.2419L40.8555 10.63C41.7711 10.5802 42.5419 11.2843 42.5419 12.1707V38.8992C42.5419 39.807 41.8098 40.5574 40.8721 40.6108L11.4622 42.2842C10.4432 42.3422 9.58388 41.5591 9.58388 40.5726V13.9537Z" fill="black"/>
</svg>
